<?xml version="1.0" encoding="UTF-8"?>
<!DOCTYPE svg PUBLIC "-//W3C//DTD SVG 1.1//EN" "http://www.w3.org/Graphics/SVG/1.1/DTD/svg11.dtd">
<!-- Creator: CorelDRAW (OEM Version) -->
<svg xmlns="http://www.w3.org/2000/svg" xml:space="preserve" width="55mm" height="35mm" version="1.1" style="shape-rendering:geometricPrecision; text-rendering:geometricPrecision; image-rendering:optimizeQuality; fill-rule:evenodd; clip-rule:evenodd"
viewBox="0 0 1756.25 1117.61"
 xmlns:xlink="http://www.w3.org/1999/xlink"
 xmlns:xodm="http://www.corel.com/coreldraw/odm/2003">
 <defs>
  <style type="text/css">
   <![CDATA[
    .fil0 {fill:#fc42b5}
   ]]>
  </style>
 </defs>
 <g id="Layer_x0020_1">
  <metadata id="CorelCorpID_0Corel-Layer"/>
  <path class="fil0" d="M650.02 1057.07l218.44 -584.25 0 -470.71 -218.44 0 2.63 434.57 -436.85 0 0 -434.57 -215.8 2.68 0 1112.82 215.8 0 0 -483.6 434.22 -0.56 0 423.62zm403.14 -380.97c-22.27,62.41 -44.54,124.83 -66.82,187.25 -30.28,84.76 -60.57,169.5 -90.85,254.26l-238.07 0 424.58 -1117.61 237.44 0 436.81 1117.61 -238.08 0 -93.11 -254.26 -406.59 -0.44 66.21 -187.25 268.83 0.44 -153.55 -411.1 -146.8 411.1z"/>
 </g>
</svg>
